<?xml version="1.0" encoding="UTF-8"?><!DOCTYPE svg PUBLIC "-//W3C//DTD SVG 1.1//EN" "http://www.w3.org/Graphics/SVG/1.1/DTD/svg11.dtd"><svg xmlns="http://www.w3.org/2000/svg" xmlns:xlink="http://www.w3.org/1999/xlink"><symbol id="android-logo"><path d="M34.886 14.062H8.114v19.133a3.553 3.553 0 00.96 2.468 3.697 3.697 0 002.422 1.159v7.453c.044.737.374 1.43.922 1.936a2.986 2.986 0 002.026.789c.753 0 1.478-.282 2.026-.789a2.869 2.869 0 00.922-1.936v-7.433h8.236v7.433c.045.737.375 1.43.922 1.936a2.985 2.985 0 002.026.789c.754 0 1.478-.282 2.026-.789a2.869 2.869 0 00.922-1.936v-7.453a3.707 3.707 0 002.426-1.158c.63-.673.975-1.555.967-2.468V14.402l-.03-.34zM2.953 15.745c.78 0 1.53.304 2.081.845.552.54.862 1.275.862 2.04v12.402c.001.38-.074.756-.22 1.107a2.88 2.88 0 01-.638.94 2.947 2.947 0 01-.956.627 2.995 2.995 0 01-3.217-.627A2.866 2.866 0 010 31.032V18.63c0-.38.076-.756.225-1.107a2.9 2.9 0 011.599-1.562 2.995 2.995 0 011.13-.216zm37.104 0c.78 0 1.53.304 2.081.845.552.54.862 1.275.862 2.04v12.402a2.845 2.845 0 01-.858 2.047 2.947 2.947 0 01-.956.627 2.994 2.994 0 01-3.217-.627 2.867 2.867 0 01-.865-2.047V18.63c0-.38.076-.756.225-1.107.148-.35.366-.669.64-.937.275-.268.6-.48.959-.625a2.995 2.995 0 011.129-.216zM8.175 12.058h26.568a10.404 10.404 0 00-3.26-7.293L34.049.498a.307.307 0 00-.122-.461.322.322 0 00-.42.11l-2.42 4.157A16.708 16.708 0 0021.458.898a16.977 16.977 0 00-9.575 3.406L9.504.187a.325.325 0 00-.184-.16.333.333 0 00-.246.01.315.315 0 00-.112.42l2.493 4.238a10.443 10.443 0 00-3.28 7.363zm17.699-5.21c0-.398.161-.78.449-1.062a1.55 1.55 0 012.167 0c.288.282.45.664.45 1.063 0 .398-.162.78-.45 1.062-.287.282-.677.44-1.084.44-.406 0-.796-.158-1.083-.44a1.488 1.488 0 01-.45-1.062zm-11.384 0c0-.398.162-.78.449-1.062a1.554 1.554 0 012.168 0c.287.282.449.664.449 1.063 0 .398-.162.78-.45 1.062-.287.282-.677.44-1.083.44-.407 0-.797-.158-1.084-.44a1.488 1.488 0 01-.449-1.062z" fill="#A4C639"/></symbol><symbol id="apple-logo"><path d="M39.245 29.74a12.09 12.09 0 002.127 6.787A12.668 12.668 0 0047 41.063a29.794 29.794 0 01-4 7.96c-2.401 3.413-4.905 6.816-8.844 6.904-3.938.09-5.088-2.219-9.526-2.219-4.437 0-5.8 2.15-9.465 2.288-3.663.139-6.686-3.718-9.088-7.111-4.956-6.905-8.752-19.639-3.664-28.2a13.925 13.925 0 015.024-5.037 14.489 14.489 0 016.935-1.977c3.724-.069 7.246 2.427 9.526 2.427 2.28 0 6.564-3.009 11.062-2.565a13.85 13.85 0 015.954 1.576 13.387 13.387 0 014.61 3.977c-.275.168-6.31 3.571-6.249 10.653h-.03zM31.978 8.936C34.16 6.46 35.238 3.247 34.981 0c-3.305.302-6.364 1.82-8.55 4.241-1.862 2.092-3.5 5.445-3.053 8.66 3.247.247 6.555-1.597 8.57-3.945" fill="#fff"/></symbol><symbol id="microsoft-logo"><path d="M20.908 19.524H0V0h20.908v19.524z" fill="#F05423"/><path d="M44 19.524H23.092V0H44v19.524z" fill="#84C441"/><path d="M20.908 41H0V21.476h20.908V41z" fill="#2DABE2"/><path d="M44 41H23.092V21.476H44V41z" fill="#F9BC15"/></symbol><g id="quotes"><path d="M35.147 6.973L30.839 0C28.389 1.481 0 12.059 0 39.13 0 46.27.341 63 18.98 63c11.236 0 13.998-10.153 13.998-13.422 0-21.727-21.47-13.994-21.47-13.994 0-17.807 19.883-26.518 23.639-28.611zm43.853 0L74.732 0c-2.43 1.481-30.849 12.059-30.849 39.13 0 7.14.342 23.87 18.99 23.87C74.1 63 76.86 52.847 76.86 49.578c0-21.727-21.47-13.994-21.47-13.994C55.391 17.777 75.315 9.066 79 6.973z" fill="#EFEFEF"/></g></svg>
